<svg width="61" height="61" viewBox="0 0 61 61" fill="none" xmlns="http://www.w3.org/2000/svg">
<path fill-rule="evenodd" clip-rule="evenodd" d="M30.7812 60.3077C47.436 60.3077 60.9374 46.8074 60.9374 30.1538C60.9374 13.5003 47.436 0 30.7812 0C14.1264 0 0.625 13.5003 0.625 30.1538C0.625 46.8074 14.1264 60.3077 30.7812 60.3077Z" fill="#0000FF"/>
<path fill-rule="evenodd" clip-rule="evenodd" d="M27.8991 39.2003C35.2957 39.2003 39.3415 32.8189 39.3415 27.2855C39.3415 27.1039 39.3415 26.9232 39.3297 26.7436C40.1167 26.1517 40.7959 25.4169 41.3359 24.576C40.6028 24.9148 39.8237 25.1373 39.0269 25.2353C39.8658 24.7117 40.4941 23.8892 40.7949 22.9187C40.005 23.4065 39.1415 23.7504 38.2409 23.9351C36.7178 22.2492 34.1706 22.1675 32.5505 23.7535C31.5067 24.776 31.0628 26.3007 31.3872 27.755C28.1539 27.5856 25.1411 25.9956 23.0986 23.3799C22.0313 25.2934 22.5772 27.7407 24.3443 28.9694C23.7043 28.95 23.0781 28.7704 22.5184 28.4459V28.499C22.5194 30.4921 23.869 32.2086 25.7449 32.6036C25.1529 32.7719 24.5315 32.7964 23.9297 32.675C24.4561 34.3813 25.9664 35.5499 27.6864 35.5835C26.2623 36.749 24.5031 37.3817 22.6919 37.3797C22.3724 37.3787 22.0529 37.3593 21.7344 37.3195C23.574 38.5482 25.7135 39.2003 27.8991 39.1973" fill="white"/>
</svg>
