<svg width="25" height="24" viewBox="0 0 25 24" fill="none" xmlns="http://www.w3.org/2000/svg">
<g clip-path="url(#clip0_167_1350)">
<path d="M20.4998 4H4.49976C3.39976 4 2.50976 4.9 2.50976 6L2.49976 18C2.49976 19.1 3.39976 20 4.49976 20H20.4998C21.5998 20 22.4998 19.1 22.4998 18V6C22.4998 4.9 21.5998 4 20.4998 4ZM19.4998 18H5.49976C4.94976 18 4.49976 17.55 4.49976 17V8L11.4398 12.34C12.0898 12.75 12.9098 12.75 13.5598 12.34L20.4998 8V17C20.4998 17.55 20.0498 18 19.4998 18ZM12.4998 11L4.49976 6H20.4998L12.4998 11Z" fill="#0094FF"/>
</g>
<defs>
<clipPath id="clip0_167_1350">
<rect width="24" height="24" fill="white" transform="translate(0.5)"/>
</clipPath>
</defs>
</svg>
