<svg width="25" height="24" viewBox="0 0 25 24" fill="none" xmlns="http://www.w3.org/2000/svg">
<g clip-path="url(#clip0_167_1345)">
<path d="M10.7498 13C10.7498 13.69 10.1898 14.25 9.49976 14.25C8.80976 14.25 8.24976 13.69 8.24976 13C8.24976 12.31 8.80976 11.75 9.49976 11.75C10.1898 11.75 10.7498 12.31 10.7498 13ZM15.4998 11.75C14.8098 11.75 14.2498 12.31 14.2498 13C14.2498 13.69 14.8098 14.25 15.4998 14.25C16.1898 14.25 16.7498 13.69 16.7498 13C16.7498 12.31 16.1898 11.75 15.4998 11.75ZM22.4998 12C22.4998 17.52 18.0198 22 12.4998 22C6.97976 22 2.49976 17.52 2.49976 12C2.49976 6.48 6.97976 2 12.4998 2C18.0198 2 22.4998 6.48 22.4998 12ZM11.1598 4.12C12.5598 6.44 15.0998 8 17.9998 8C18.4598 8 18.9098 7.95 19.3398 7.88C17.9398 5.56 15.3998 4 12.4998 4C12.0398 4 11.5898 4.05 11.1598 4.12ZM4.91976 9.47C6.62976 8.5 7.94976 6.92 8.57976 5.03C6.86976 6 5.54976 7.58 4.91976 9.47ZM20.4998 12C20.4998 11.22 20.3798 10.47 20.1698 9.76C19.4698 9.91 18.7498 10 17.9998 10C14.8698 10 12.0798 8.56 10.2398 6.31C9.18976 8.87 7.09976 10.88 4.49976 11.86C4.50976 11.9 4.49976 11.95 4.49976 12C4.49976 16.41 8.08976 20 12.4998 20C16.9098 20 20.4998 16.41 20.4998 12Z" fill="#0094FF"/>
</g>
<defs>
<clipPath id="clip0_167_1345">
<rect width="24" height="24" fill="white" transform="translate(0.5)"/>
</clipPath>
</defs>
</svg>
