<svg width="61" height="61" viewBox="0 0 61 61" fill="none" xmlns="http://www.w3.org/2000/svg">
<path fill-rule="evenodd" clip-rule="evenodd" d="M30.1562 60.3077C46.8111 60.3077 60.3125 46.8074 60.3125 30.1538C60.3125 13.5003 46.8111 0 30.1562 0C13.5014 0 0 13.5003 0 30.1538C0 46.8074 13.5014 60.3077 30.1562 60.3077Z" fill="#0000FF"></path>
<path fill-rule="evenodd" clip-rule="evenodd" d="M31.8046 40.707V31.2087H34.8809L35.3833 26.9872H31.8046V24.9313C31.8046 23.8443 31.8342 22.7657 33.4546 22.7657H35.0959V19.7474C35.0959 19.702 33.6861 19.5996 32.2599 19.5996C29.2813 19.5996 27.4163 21.3484 27.4163 24.5599V26.9872H24.125V31.2087H27.4163V40.707H31.8046Z" fill="white"></path>
</svg>
