<svg width="61" height="61" viewBox="0 0 61 61" fill="none" xmlns="http://www.w3.org/2000/svg">
<path fill-rule="evenodd" clip-rule="evenodd" d="M30.4688 60.3077C47.1236 60.3077 60.625 46.8074 60.625 30.1538C60.625 13.5003 47.1236 0 30.4688 0C13.8139 0 0.3125 13.5003 0.3125 30.1538C0.3125 46.8074 13.8139 60.3077 30.4688 60.3077Z" fill="#0000FF"></path>
<mask id="mask0_21_5745" style="mask-type: luminance" maskUnits="userSpaceOnUse" x="21" y="21" width="21" height="20">
<path fill-rule="evenodd" clip-rule="evenodd" d="M21.4219 21.1074H41.0235V40.707H21.4219V21.1074Z" fill="white"></path>
</mask>
<g mask="url('#mask0_21_5745')">
<path fill-rule="evenodd" clip-rule="evenodd" d="M37.6305 25.6761C37.6305 26.3255 37.1039 26.852 36.4544 26.852C35.8049 26.852 35.2782 26.3255 35.2782 25.6761C35.2782 25.0266 35.8049 24.5001 36.4544 24.5001C37.1039 24.5001 37.6305 25.0266 37.6305 25.6761ZM31.2227 34.1739C29.4184 34.1739 27.9557 32.7113 27.9557 30.9072C27.9557 29.1032 29.4184 27.6406 31.2227 27.6406C33.0269 27.6406 34.4896 29.1032 34.4896 30.9072C34.4896 32.7113 33.0269 34.1739 31.2227 34.1739ZM31.2227 25.8749C28.4432 25.8749 26.1898 28.1279 26.1898 30.9072C26.1898 33.6865 28.4432 35.9396 31.2227 35.9396C34.0022 35.9396 36.2555 33.6865 36.2555 30.9072C36.2555 28.1279 34.0022 25.8749 31.2227 25.8749ZM31.2227 21.1074C28.5609 21.1074 28.2272 21.1187 27.1818 21.1664C26.1387 21.214 25.4262 21.3796 24.8028 21.6219C24.1583 21.8723 23.6117 22.2074 23.0669 22.7523C22.522 23.297 22.1869 23.8435 21.9364 24.488C21.6942 25.1113 21.5285 25.8237 21.4808 26.8668C21.4331 27.912 21.4219 28.2457 21.4219 30.9072C21.4219 33.5687 21.4331 33.9024 21.4808 34.9477C21.5285 35.9907 21.6942 36.7031 21.9364 37.3265C22.1869 37.9708 22.522 38.5174 23.0669 39.0622C23.6117 39.607 24.1583 39.9421 24.8028 40.1925C25.4262 40.4349 26.1387 40.6005 27.1818 40.6481C28.2272 40.6958 28.5609 40.707 31.2227 40.707C33.8844 40.707 34.2183 40.6958 35.2635 40.6481C36.3068 40.6005 37.0192 40.4349 37.6426 40.1925C38.2871 39.9421 38.8337 39.607 39.3786 39.0622C39.9234 38.5174 40.2585 37.9709 40.509 37.3265C40.7513 36.7031 40.9169 35.9907 40.9645 34.9477C41.0122 33.9024 41.0235 33.5687 41.0235 30.9072C41.0235 28.2457 41.0122 27.912 40.9645 26.8668C40.9169 25.8237 40.7513 25.1113 40.509 24.488C40.2585 23.8435 39.9234 23.297 39.3786 22.7523C38.8337 22.2074 38.2871 21.8723 37.6426 21.6219C37.0192 21.3796 36.3068 21.214 35.2635 21.1664C34.2183 21.1187 33.8844 21.1074 31.2227 21.1074ZM31.2227 22.8732C33.8396 22.8732 34.1496 22.8831 35.183 22.9303C36.1386 22.9739 36.6575 23.1335 37.003 23.2677C37.4604 23.4454 37.7869 23.6579 38.1298 24.0007C38.4728 24.3437 38.6852 24.6702 38.863 25.1276C38.9972 25.4729 39.1569 25.9919 39.2005 26.9473C39.2476 27.9806 39.2576 28.2905 39.2576 30.9072C39.2576 33.5239 39.2476 33.8338 39.2005 34.8671C39.1569 35.8227 38.9972 36.3415 38.863 36.6869C38.6852 37.1443 38.4728 37.4707 38.1298 37.8137C37.7869 38.1566 37.4604 38.369 37.003 38.5467C36.6575 38.6809 36.1386 38.8406 35.183 38.8842C34.1497 38.9313 33.8398 38.9412 31.2227 38.9412C28.6056 38.9412 28.2956 38.9313 27.2623 38.8842C26.3068 38.8406 25.7878 38.6809 25.4425 38.5467C24.985 38.369 24.6584 38.1566 24.3155 37.8137C23.9726 37.4707 23.7602 37.1443 23.5824 36.6869C23.4482 36.3415 23.2885 35.8227 23.245 34.8672C23.1977 33.8338 23.1878 33.5239 23.1878 30.9072C23.1878 28.2905 23.1977 27.9806 23.245 26.9473C23.2885 25.9919 23.4482 25.4729 23.5824 25.1276C23.7602 24.6702 23.9726 24.3437 24.3155 24.0007C24.6584 23.6579 24.985 23.4454 25.4425 23.2677C25.7878 23.1335 26.3068 22.9739 27.2623 22.9303C28.2958 22.8831 28.6058 22.8732 31.2227 22.8732Z" fill="white"></path>
</g>
</svg>
