<svg id="logoPDA" viewBox="0 0 94 32" fill="none" xmlns="http://www.w3.org/2000/svg">
<g clip-path="url('#clip0_2_6418')">
<path d="M8.94098 32.0003H0.844482V14.7286H17.4549C18.0864 14.7429 18.7063 14.5556 19.2273 14.1932C19.7469 13.833 20.1789 13.3574 20.4907 12.8025C20.7944 12.2846 20.9548 11.693 20.9548 11.0902C20.9548 10.4874 20.7944 9.89581 20.4907 9.3779C20.1917 8.81263 19.7572 8.33305 19.2273 7.98353C18.7038 7.62688 18.0853 7.44135 17.4549 7.45181H0.844482V0.0151367H17.4549C19.9011 0.0151367 22.0104 0.572883 23.7388 1.70697C25.3837 2.75788 26.7354 4.22 27.6644 5.95331C28.5245 7.52581 28.9887 9.28976 29.0156 11.0883C29.018 12.5149 28.7378 13.9274 28.1917 15.2417C27.6291 16.6155 26.781 17.8496 25.7053 18.8597C24.6168 19.9403 23.3274 20.7901 21.9122 21.3596C20.497 21.929 18.9843 22.2067 17.4623 22.1764H8.94098V32.0003Z" fill="white"></path>
<path d="M81.6085 8.22935L77.2216 0.00439453L60.9224 32.0007H69.3741L81.6085 8.22935Z" fill="white"></path>
<path d="M84.8437 14.543L78.2778 26.9399H82.8845L85.4662 32.0006H93.9948L84.8437 14.543Z" fill="white"></path>
<path d="M60.4297 9.87303C59.5938 8.06599 58.4649 6.41437 57.0901 4.98713C55.5915 3.46606 53.8252 2.24391 51.8828 1.38407C49.7682 0.465221 47.4889 0.00182928 45.1888 0.0231656H33.6831V7.45984V14.8147H40.9264V7.44495H45.1888C46.2766 7.42497 47.357 7.62994 48.3642 8.04736C49.3715 8.46479 50.2846 9.08594 51.0479 9.87303C51.8808 10.6836 52.5445 11.656 52.9997 12.7324C53.4435 13.7684 53.6729 14.886 53.6735 16.0157C53.6676 17.1449 53.4384 18.2614 52.9997 19.299C52.5415 20.3736 51.8866 21.3502 51.0699 22.177C50.3132 22.934 49.414 23.5283 48.426 23.9246C47.3963 24.3654 46.2878 24.5844 45.1705 24.5679H33.6611V32.0046L45.1888 31.9822C47.4239 31.9751 49.6355 31.5189 51.6961 30.6399C53.6553 29.8254 55.4437 28.6391 56.9656 27.1447C58.487 25.6601 59.6944 23.8762 60.514 21.9018C61.3024 20.0214 61.7133 18 61.7224 15.9562C61.7383 13.8565 61.2969 11.7792 60.4297 9.87303Z" fill="white"></path>
</g>
<defs>
<clipPath id="clip0_2_6418">
<rect width="93.1556" height="32" fill="white" transform="translate(0.844482)"></rect>
</clipPath>
</defs>
</svg>
